<svg width="200" height="200" viewBox="0 0 200 200" xmlns="http://www.w3.org/2000/svg"><g fill="#3B82F6" fill-opacity="0.2" fill-rule="evenodd"><path d="M20 20h20v20H20V20zm40 40h20v20H60V60zm40 40h20v20h-20v-20zm40 40h20v20h-20v-20zM0 60h20v20H0V60zm40 40h20v20H40v-20zm40 40h20v20h-20v-20zm40-80h20v20h-20V20zM0 140h20v20H0v-20zm120-80h20v20h-20V60zM0 20h20v20H0V20zm40 40h20v20H40V60zm40 40h20v20h-20v-20zM0 100h20v20H0v-20zm40-40h20v20H40V60zm40-40h20v20h-20V20zm40 40h20v20h-20V60zM0 180h20v20H0v-20zm40-40h20v20H40v-20z"/></g></svg>